<svg xmlns="http://www.w3.org/2000/svg" viewBox="-26 -35 662 863" width="662" height="863"><g><path d="M0 0 C1.919 1.919 1.606 5.32 1.902 7.887 C2.071 9.3 2.239 10.714 2.412 12.17 C2.761 15.162 3.106 18.154 3.451 21.146 C3.621 22.566 3.79 23.986 3.965 25.449 C4.116 26.752 4.266 28.055 4.422 29.397 C4.967 32.792 5.915 35.75 7 39 C7 41.31 6.994 43.62 6.941 45.93 C7.238 61.476 7.238 61.476 10 67 C10.185 69.961 10.326 72.911 10.438 75.875 C11.367 96.367 11.367 96.367 15 100 C15.125 103.625 15.125 103.625 15 107 C18.849 105.717 19.516 104.186 21.688 100.812 C22.31 99.87 22.933 98.928 23.574 97.957 C25.149 94.692 25.281 92.578 25 89 C29 88 29 88 32 89 C31.649 88.361 31.299 87.721 30.938 87.062 C29.568 82.59 30.079 79.604 31 75 C32.875 73.375 32.875 73.375 35 72 C35.474 70.886 35.949 69.772 36.438 68.625 C38.801 63.142 41.709 60.645 47 58 C47.66 56.68 48.32 55.36 49 54 C55.645 49.792 55.645 49.792 60.25 50.5 C65.857 53.558 68.995 57.985 71 64 C70.308 65.764 69.611 67.525 68.891 69.277 C67.286 74.182 66.65 79.304 65.844 84.391 C65.014 87.94 64.206 89.252 62 92 C61.282 94.039 60.642 96.105 60.062 98.188 C58.881 102.245 57.626 106.057 55.812 109.875 C54.068 113.56 53.497 116.943 53 121 C52.34 121.66 51.68 122.32 51 123 C50.405 126.268 50.044 129.537 49.66 132.836 C49 136 49 136 47.555 137.826 C45.64 140.503 45.147 142.738 44.465 145.953 C44.214 147.121 43.962 148.289 43.704 149.493 C43.577 150.113 43.577 150.113 42.938 153.25 C42.674 154.524 42.411 155.798 42.14 157.111 C39.42 170.525 37.85 183.354 37.75 197.062 C37.74 198.135 37.731 199.207 37.721 200.311 C37.745 205.955 38.275 210.585 40 216 C40.314 218.641 40.583 221.288 40.812 223.938 C43.128 245.128 43.128 245.128 49 251 C49.387 253.05 49.687 255.117 49.938 257.188 C50.649 262.296 51.867 266.29 54 271 C54.323 272.577 54.612 274.162 54.875 275.75 C55.571 279.689 56.767 282.805 58.562 286.375 C61.033 291.439 61.589 295.77 61.664 301.371 C62.06 304.471 63.141 305.548 65 308 C65.66 310.945 65.66 310.945 66.062 314.125 C66.79 319.79 66.79 319.79 69 322 C69.081 324.665 69.086 327.335 69 330 C65.096 328.048 62.285 325.837 59 323 C58.34 325.31 57.68 327.62 57 330 C56.01 330 55.02 330 54 330 C53.879 328.77 53.758 327.54 53.633 326.273 C53.464 324.641 53.295 323.008 53.125 321.375 C53.046 320.567 52.968 319.759 52.887 318.926 C51.94 309.965 51.94 309.965 50 306 C49.161 305.704 48.322 305.407 47.457 305.102 C45 304 45 304 44.074 300.523 C43.947 299.154 43.819 297.785 43.688 296.375 C43.547 295.001 43.406 293.627 43.262 292.211 C43.175 291.151 43.089 290.092 43 289 C41.35 289.33 39.7 289.66 38 290 C38.433 291.19 38.866 292.38 39.312 293.605 C41.867 301.26 43.199 309.23 44.75 317.135 C44.997 318.345 45.245 319.554 45.5 320.801 C45.608 321.348 45.608 321.348 46.156 324.118 C47.018 327.062 48.173 328.595 50 331 C50.189 334.052 50.237 336.898 50.125 339.938 C49.992 344.779 50.037 349.243 51 354 C51.118 355.68 51.199 357.363 51.246 359.047 C51.279 359.974 51.312 360.901 51.346 361.855 C51.407 363.801 51.465 365.746 51.518 367.691 C51.535 368.152 51.535 368.152 51.621 370.484 C51.634 370.906 51.634 370.906 51.697 373.038 C52 375 52 375 54 376 C54.33 375.01 54.66 374.02 55 373 C57 373 57 373 59 375 C59.268 374.175 59.536 373.35 59.812 372.5 C60.008 372.087 60.008 372.087 61 370 C61.99 370 62.98 370 64 370 C65.286 376.936 65.192 383.848 65.188 390.875 C65.187 391.532 65.187 391.532 65.187 394.856 C64.986 430.014 64.986 430.014 62 433 C61.765 435.183 61.586 437.372 61.438 439.562 C61.354 440.76 61.27 441.958 61.184 443.191 C61.123 444.118 61.062 445.045 61 446 C59.35 446.33 57.7 446.66 56 447 C56.33 447.99 56.66 448.98 57 450 C57.905 459.911 55.922 468.57 53 478 C52.216 477.814 51.433 477.629 50.625 477.438 C48 477 48 477 46 478 C46.206 479.134 46.413 480.269 46.625 481.438 C46.749 482.613 46.872 483.789 47 485 C45.68 485.66 44.36 486.32 43 487 C42.958 489 42.958 491 43 493 C42.01 493.66 41.02 494.32 40 495 C39.711 496.031 39.423 497.062 39.125 498.125 C37.983 502.058 36.466 504.742 34.219 508.105 C30.958 513.175 30.958 513.175 31.125 516.438 C30.952 519.986 29.294 521.369 27 524 C25 528 25 528 24.188 532.25 C23.309 536.517 21.651 539.39 19.234 542.965 C16.575 547.349 15.4 552.369 14.188 557.312 C12.475 562.63 10.02 569.98 6 574 C5.466 581.182 5.503 586.615 9 593 C9 599.171 6.379 604.902 3 610 C2.01 610.33 1.02 610.66 0 611 C0.095 611.932 0.191 612.864 0.289 613.824 C1.963 633.074 1.963 633.074 -2 641 C-2.206 643.497 -2.366 645.998 -2.5 648.5 C-2.889 655.778 -2.889 655.778 -4 658 C-4.226 660.411 -4.394 662.828 -4.535 665.246 C-4.622 666.724 -4.709 668.202 -4.799 669.725 C-4.842 670.5 -4.885 671.275 -4.93 672.073 C-5.06 674.397 -5.198 676.721 -5.338 679.045 C-6.662 701.675 -6.662 701.675 -5 705 C-4.93 706.874 -4.916 708.75 -4.938 710.625 C-4.942 711.126 -4.942 711.126 -4.965 713.664 C-4.971 714.049 -4.971 714.049 -5 716 C-0.802 716.869 3.137 717.045 7.419 716.934 C15.084 716.74 21.905 716.853 29 720 C30.132 720.499 31.264 720.998 32.43 721.512 C42.449 726.225 50.021 730.319 54 741 C54.99 741.66 55.98 742.32 57 743 C57.66 745.172 57.66 745.172 58.062 747.75 C58.572 750.737 59.112 753.317 60.125 756.188 C61.188 759.603 61.274 762.443 61 766 C58.228 768.772 56.848 768.363 53 768 C50.66 767.015 48.327 766.015 46 765 C43.188 764.625 43.188 764.625 41 765 C40.34 765.99 39.68 766.98 39 768 C31.58 768.58 31.58 768.58 29 766 C26.406 765.757 26.406 765.757 23.145 765.77 C22.554 765.77 22.554 765.77 19.568 765.775 C18.329 765.788 17.089 765.8 15.812 765.812 C14.592 765.813 13.372 765.814 12.115 765.814 C6.303 765.843 0.747 766.055 -5 767 C-6.77 767.04 -8.542 767.044 -10.312 767 C-14.781 766.891 -14.781 766.891 -17 768 C-19.603 768.098 -22.208 768.13 -24.812 768.125 C-26.221 768.128 -27.63 768.13 -29.082 768.133 C-32.236 768.026 -34.938 767.642 -38 767 C-38.33 767.33 -38.66 767.66 -39 768 C-40.623 768.099 -42.249 768.131 -43.875 768.133 C-44.367 768.133 -44.367 768.133 -46.859 768.137 C-47.896 768.133 -48.932 768.129 -50 768.125 C-51.036 768.129 -52.073 768.133 -53.141 768.137 C-54.125 768.135 -55.11 768.134 -56.125 768.133 C-57.035 768.132 -57.945 768.131 -58.883 768.129 C-61 768 -61 768 -62 767 C-62.144 765.886 -62.289 764.773 -62.438 763.625 C-63 760 -63 760 -65 757 C-66.972 751.549 -67.368 746.312 -67.656 740.574 C-68 738 -68 738 -70 736 C-70.532 733.955 -70.976 731.887 -71.375 729.812 C-72.414 724.625 -73.656 719.582 -75.125 714.5 C-76.773 708.474 -77.429 702.851 -77.727 696.629 C-78.297 689.057 -79.52 681.169 -82.066 673.996 C-83.17 670.455 -83.348 667.265 -83.5 663.562 C-83.658 659.707 -83.892 656.371 -84.969 652.66 C-86.494 647.246 -86.769 641.798 -87.211 636.207 C-87.603 631.73 -88.177 628.148 -90 624 C-90.309 621.625 -90.309 621.625 -90.438 619 C-90.859 612.894 -91.642 606.87 -92.5 600.812 C-92.631 599.867 -92.762 598.921 -92.896 597.947 C-93.878 591.122 -93.878 591.122 -95 590 C-95.194 587.96 -95.324 585.914 -95.43 583.867 C-95.465 583.23 -95.465 583.23 -95.646 580.004 C-95.684 579.323 -95.684 579.323 -95.875 575.875 C-96.697 562.428 -97.634 549.52 -103 537 C-107.127 538.032 -107.684 538.401 -110.312 541.375 C-113.571 544.793 -116.559 546.304 -121 548 C-123.012 549.315 -125.014 550.646 -127 552 C-127.99 552.33 -128.98 552.66 -130 553 C-128.938 548.752 -128.43 548.109 -125.25 545.438 C-124.889 545.133 -124.889 545.133 -123.062 543.59 C-121 542 -121 542 -118.25 540.5 C-115.015 538.343 -113.837 535.369 -112 532 C-109 530 -109 530 -105 531 C-107 527 -107 527 -111 525 C-111 524.34 -111 523.68 -111 523 C-110.433 522.691 -110.433 522.691 -107.562 521.125 C-104 519 -104 519 -103 515 C-106.752 515.938 -108.776 517.004 -112 519 C-112.456 519.22 -112.456 519.22 -114.766 520.332 C-118.183 522.095 -121.227 524.106 -124.375 526.312 C-125.512 527.108 -126.649 527.903 -127.82 528.723 C-130.335 530.524 -132.803 532.358 -135.25 534.25 C-137.838 536.227 -140.438 537.844 -143.312 539.375 C-148.004 541.879 -152.176 544.942 -156.422 548.133 C-158.88 549.913 -161.389 551.457 -164 553 C-165.463 553.993 -166.922 554.993 -168.375 556 C-172.1 558.518 -175.866 560.228 -180 562 C-180.66 562.99 -181.32 563.98 -182 565 C-183.32 565 -184.64 565 -186 565 C-185 569 -185 569 -182.625 571.688 C-179.892 575.136 -178.893 577.715 -177.691 581.855 C-177 584 -177 584 -175.312 586.812 C-173.647 590.856 -173.838 594.086 -173.969 598.418 C-174.019 604.134 -173.48 609.814 -173.023 615.508 C-173 619 -173 619 -175 621 C-175.844 624.486 -176.471 627.992 -177.121 631.52 C-177.974 634.896 -179.127 637.105 -181 640 C-181.341 641.665 -181.676 643.332 -182 645 C-182.66 645.33 -183.32 645.66 -184 646 C-185.383 648.304 -186.708 650.644 -188 653 C-188.701 654.196 -189.402 655.393 -190.125 656.625 C-192 660 -192 660 -193 662.688 C-194.714 666.651 -196.937 668.646 -201 670 C-202.465 671.707 -202.465 671.707 -203.938 673.812 C-206.743 677.682 -209.266 680.978 -213.438 683.438 C-217.371 685.836 -220.207 688.889 -222.875 692.625 C-225.581 695.65 -228.251 696.513 -232 698 C-236.571 700.782 -240.691 704.087 -244.887 707.395 C-247.16 709.122 -249.541 710.553 -252 712 C-252.99 712.99 -253.98 713.98 -255 715 C-258.468 717.401 -259.652 718 -264 718 C-264 718.99 -264 719.98 -264 721 C-259.917 721.029 -255.833 721.047 -251.75 721.062 C-250.591 721.071 -249.432 721.079 -248.238 721.088 C-247.123 721.091 -246.008 721.094 -244.859 721.098 C-243.833 721.103 -242.807 721.108 -241.749 721.114 C-239 721 -239 721 -235 720 C-233.804 720.227 -232.608 720.454 -231.375 720.688 C-230.818 720.739 -230.818 720.739 -228 721 C-227.34 719.68 -226.68 718.36 -226 717 C-221.116 715.84 -216.275 715.893 -211.273 715.938 C-209.83 715.945 -208.386 715.953 -206.898 715.961 C-205.391 715.973 -203.883 715.986 -202.375 716 C-199.404 716.027 -196.432 716.047 -193.461 716.062 C-192.149 716.074 -190.837 716.086 -189.486 716.098 C-186 716 -186 716 -183.284 715.434 C-181 715 -181 715 -177 716 C-176.631 715.915 -176.631 715.915 -174.766 715.484 C-159.695 712.845 -134.821 722.662 -125 734 C-119.223 741.239 -114.443 747.948 -112 757 C-111.443 757.887 -110.886 758.774 -110.312 759.688 C-108.66 762.599 -108.77 764.707 -109 768 C-113.456 768.159 -116.769 768.06 -121.125 766.938 C-125.001 766 -127.174 766.18 -131 767 C-133 766 -133 766 -133.875 763.438 C-134.246 762.633 -134.618 761.829 -135 761 C-136.32 761 -137.64 761 -139 761 C-139.144 761.969 -139.289 762.939 -139.438 763.938 C-140 767 -140 767 -141 768 C-146.487 768.421 -151.722 768.221 -157.062 766.875 C-161 766 -161 766 -163 768 C-165.824 768.012 -165.824 768.012 -169.688 767.688 C-179.942 766.908 -190.206 766.656 -200.485 766.393 C-201.786 766.356 -203.086 766.319 -204.426 766.281 C-205.011 766.266 -205.011 766.266 -207.97 766.189 C-211 766 -211 766 -215 765 C-217.31 764.879 -219.623 764.813 -221.935 764.779 C-223.357 764.756 -224.779 764.732 -226.244 764.709 C-227.807 764.688 -229.37 764.668 -230.934 764.648 C-232.566 764.625 -234.198 764.602 -235.83 764.578 C-239.275 764.53 -242.721 764.485 -246.167 764.442 C-249.622 764.399 -253.076 764.351 -256.531 764.297 C-274.518 764.015 -292.5 763.865 -310.487 764.239 C-312.136 764.272 -313.785 764.301 -315.434 764.325 C-317.701 764.36 -319.968 764.417 -322.235 764.475 C-323.521 764.504 -324.808 764.532 -326.134 764.562 C-326.607 764.634 -326.607 764.634 -329 765 C-329.33 765.99 -329.66 766.98 -330 768 C-332.969 768.313 -335.733 768.419 -338.707 768.404 C-339.621 768.411 -340.535 768.418 -341.477 768.425 C-344.517 768.443 -347.557 768.439 -350.598 768.434 C-352.707 768.438 -354.816 768.443 -356.926 768.449 C-361.359 768.458 -365.791 768.456 -370.224 768.446 C-375.895 768.435 -381.565 768.455 -387.235 768.484 C-391.598 768.502 -395.96 768.502 -400.323 768.496 C-402.412 768.496 -404.502 768.502 -406.591 768.515 C-409.523 768.53 -412.455 768.519 -415.387 768.502 C-416.245 768.511 -417.103 768.521 -417.987 768.531 C-424.032 768.458 -427.711 766.897 -433 764 C-435.977 764.074 -435.977 764.074 -438.625 764.688 C-442.956 765.3 -444.656 765.18 -447.562 761.812 C-449.354 759.287 -450.601 756.797 -452 754 C-452.825 753.691 -453.65 753.381 -454.5 753.062 C-457.797 751.661 -457.947 750.321 -459 747 C-459.66 746.01 -460.32 745.02 -461 744 C-461.107 743.16 -461.214 742.319 -461.324 741.453 C-462.263 738.044 -463.556 737.875 -466.812 736.75 C-467.685 736.435 -468.558 736.121 -469.457 735.797 C-471.615 735.121 -473.806 734.549 -476 734 C-476 734.99 -476 735.98 -476 737 C-474.68 737.33 -473.36 737.66 -472 738 C-472.33 738.99 -472.66 739.98 -473 741 C-477.265 741.673 -477.802 741.198 -481 738 C-481.928 737.67 -482.856 737.34 -483.812 737 C-488.745 733.905 -490.525 729.137 -493 724 C-494.976 720.047 -496.841 718.005 -500 715 C-505.393 709.607 -507.482 701.915 -509.992 694.82 C-510.66 692.952 -511.352 691.092 -512.07 689.242 C-514.231 683.624 -515.658 678.278 -516.508 672.312 C-517 670 -517 670 -519 667 C-519.379 664.59 -519.379 664.59 -519.562 661.938 C-519.904 657.192 -519.904 657.192 -521 655 C-521.182 651.78 -521.308 648.579 -521.387 645.355 C-521.412 644.394 -521.438 643.432 -521.464 642.441 C-521.516 640.402 -521.566 638.364 -521.613 636.325 C-521.687 633.21 -521.778 630.097 -521.869 626.982 C-521.918 625.003 -521.965 623.023 -522.012 621.043 C-522.041 620.113 -522.07 619.182 -522.1 618.224 C-522.189 613.6 -522.036 610.244 -520 606 C-519.913 603.481 -519.92 600.957 -520 598.438 C-520.155 593.565 -520.216 591.432 -518 587 C-517.34 586.67 -516.68 586.34 -516 586 C-515.621 583.969 -515.621 583.969 -515.438 581.5 C-515.096 577.096 -515.096 577.096 -514 576 C-513.678 574.255 -513.392 572.504 -513.125 570.75 C-512.386 566.462 -511.375 563.661 -509 560 C-508.711 558.721 -508.423 557.442 -508.125 556.125 C-506.862 551.494 -504.785 548.872 -502 545 C-501.573 543.644 -501.147 542.288 -500.707 540.891 C-498.977 535.458 -496.203 530.955 -493.125 526.188 C-492.608 525.355 -492.091 524.523 -491.559 523.666 C-488.763 519.276 -486.228 516.126 -482 513 C-481.273 511.021 -480.602 509.02 -480 507 C-476.667 503.667 -473.333 500.333 -470 497 C-469.629 495.969 -469.257 494.938 -468.875 493.875 C-466.811 489.61 -464.499 487.242 -461.098 484.031 C-459.136 482.131 -457.422 480.169 -455.688 478.062 C-452.105 473.891 -447.992 470.573 -443.695 467.16 C-441.369 465.296 -439.147 463.374 -436.938 461.375 C-431.84 456.865 -426.274 452.899 -420.387 449.484 C-418 448 -418 448 -415 445 C-413.049 443.946 -411.066 442.951 -409.062 442 C-405.394 440.254 -402.196 438.503 -399 436 C-396.028 434.385 -393.231 433.072 -390 432.062 C-387 431 -387 431 -384.25 429.062 C-380.763 426.85 -377.734 425.937 -373.793 424.852 C-369.656 423.59 -365.733 421.886 -361.762 420.184 C-352.869 416.373 -352.869 416.373 -349 417 C-348.34 418.32 -347.68 419.64 -347 421 C-349.854 424.805 -353.713 427.228 -357.562 429.938 C-361.756 432.924 -364.4 435.5 -367 440 C-369.543 442.81 -371.886 444.925 -375.062 447 C-378.076 449.052 -379.806 451.125 -382 454 C-382.99 454.66 -383.98 455.32 -385 456 C-385.454 457.072 -385.908 458.145 -386.375 459.25 C-388.497 464.147 -390.779 468.26 -396 470 C-397.027 471.891 -397.027 471.891 -397.938 474.25 C-399.521 478.072 -401.368 480.793 -404 484 C-404.986 486.003 -405.971 488.007 -406.93 490.023 C-408 492 -408 492 -410.562 495.062 C-413 498 -413 498 -414.438 501.375 C-415.804 504.546 -416.982 506.336 -419.125 508.938 C-422.238 512.903 -422.467 515.973 -423 521 C-423.71 522.507 -424.482 523.986 -425.293 525.441 C-428.383 531.42 -430.06 537.572 -431.75 544.062 C-432.346 546.304 -432.945 548.545 -433.547 550.785 C-433.675 551.274 -433.675 551.274 -434.323 553.75 C-435 556 -435 556 -436 557 C-436.124 558.258 -436.248 559.516 -436.375 560.812 C-437 565 -437 565 -438.562 567.062 C-440.742 570 -440.328 572.459 -440 576 C-439.34 576.66 -438.68 577.32 -438 578 C-437.697 580.623 -437.697 580.623 -437.621 583.934 C-437.587 585.141 -437.553 586.348 -437.518 587.592 C-437.491 588.861 -437.465 590.13 -437.438 591.438 C-437.103 605.058 -436.361 617.16 -432.375 630.25 C-432.017 631.438 -431.658 632.626 -431.289 633.85 C-427.511 646.058 -422.701 657.025 -415.48 667.633 C-413.185 671.304 -412.049 674.804 -411 679 C-410.835 679.495 -410.835 679.495 -410 682 C-403.293 677.209 -403.293 677.209 -402 671.875 C-403 668 -403 668 -405.036 667.21 C-405.851 667.003 -406.667 666.796 -407.508 666.582 C-410.729 665.256 -411.766 664.752 -412.819 661.369 C-413.079 657.811 -413.036 654.376 -412.875 650.812 C-412.843 649.521 -412.811 648.23 -412.778 646.9 C-412.189 631.55 -410.701 603.701 -399 592 C-398.527 590.201 -398.12 588.385 -397.75 586.562 C-396.198 579.986 -393.384 574.792 -390 569 C-389.402 567.763 -388.804 566.525 -388.188 565.25 C-383.431 555.619 -377.608 546.452 -371 538 C-370.299 536.928 -369.597 535.855 -368.875 534.75 C-367.102 532.15 -365.215 530.215 -363 528 C-362.68 527.484 -362.68 527.484 -361.062 524.875 C-359 522 -359 522 -356.438 521.062 C-352.744 519.453 -352.44 516.632 -351 513 C-349.709 511.626 -348.374 510.291 -347 509 C-346.423 508.072 -345.845 507.144 -345.25 506.188 C-342.832 502.763 -340.23 500.439 -337 497.809 C-335 496 -335 496 -333.086 493.566 C-330.825 490.785 -328.427 488.729 -325.625 486.5 C-324.657 485.723 -323.689 484.945 -322.691 484.145 C-321.803 483.437 -320.915 482.729 -320 482 C-314.5 477.5 -314.5 477.5 -312 475 C-305.5 468.5 -305.5 468.5 -301 467 C-299.492 465.363 -299.492 465.363 -297.875 463.312 C-294.731 459.609 -291.537 457.122 -287.441 454.551 C-279.766 449.675 -272.584 443.966 -265.324 438.5 C-262.852 436.64 -260.375 434.787 -257.895 432.938 C-257.541 432.673 -257.541 432.673 -255.751 431.337 C-254.37 430.306 -252.989 429.277 -251.607 428.249 C-248.56 425.972 -245.611 423.669 -242.711 421.203 C-240 419 -240 419 -237 418 C-236.464 417.278 -235.928 416.556 -235.375 415.812 C-232.678 412.619 -229.867 410.84 -226.375 408.605 C-220.685 404.759 -215.779 399.908 -211 395 C-206.375 390.257 -201.964 385.982 -196 383 C-193.894 380.559 -192.016 378 -190.098 375.41 C-187.904 372.89 -185.854 371.682 -183 370 C-181.086 367.914 -181.086 367.914 -179.375 365.625 C-178.774 364.823 -178.174 364.021 -177.555 363.195 C-176 361 -176 361 -174.5 358.5 C-172.577 355.294 -170.264 352.477 -167.914 349.574 C-163.241 343.289 -159.39 336.379 -155.438 329.625 C-154.969 328.839 -154.5 328.052 -154.018 327.242 C-151.151 322.335 -148.851 317.448 -146.891 312.112 C-145.722 309.342 -143.884 307.324 -142 305 C-141.267 302.687 -140.589 300.354 -140 298 C-139.67 297.67 -139.34 297.34 -139 297 C-138.876 295.845 -138.752 294.69 -138.625 293.5 C-137.936 287.478 -135.936 282.059 -133.438 276.562 C-129.919 267.842 -129.697 258.959 -129.441 249.66 C-129 246 -129 246 -126 243 C-124.68 243.66 -123.36 244.32 -122 245 C-119.375 245 -119.375 245 -117 244 C-115.938 241.188 -115.938 241.188 -115 238 C-113 235.813 -113 235.813 -111 234 C-110.34 233.01 -109.68 232.02 -109 231 C-106.375 230.812 -106.375 230.812 -104 231 C-103.67 229.35 -103.34 227.7 -103 226 C-104.32 225.34 -105.64 224.68 -107 224 C-108.711 225.23 -108.711 225.23 -110.375 227.188 C-113.388 230.461 -115.907 232.154 -120 234 C-124.777 236.666 -129.209 239.299 -133.312 242.938 C-136.444 245.341 -137.393 245.379 -141 244 C-140.67 242.02 -140.34 240.04 -140 238 C-144.889 238.479 -147.914 239.339 -152 242 C-160.533 246.554 -167.459 249.053 -177.141 249.715 C-180.309 250.031 -183.062 250.776 -186 252 C-184.485 255.029 -182.119 255.071 -179 256 C-179.33 256.99 -179.66 257.98 -180 259 C-182.582 259.363 -182.582 259.363 -185.812 259.312 C-186.871 259.309 -187.929 259.305 -189.02 259.301 C-192 259 -192 259 -196 257 C-198.659 256.609 -201.326 256.267 -204 256 C-204 248.764 -202.906 246.141 -197.191 241.766 C-194.9 239.919 -193.173 237.961 -191.312 235.688 C-188.711 232.587 -186.808 231.414 -183 230 C-182.714 229.251 -182.428 228.502 -182.133 227.73 C-180.806 224.531 -179.184 222.883 -176.688 220.5 C-175.881 219.719 -175.074 218.938 -174.242 218.133 C-173.502 217.429 -172.762 216.725 -172 216 C-169.14 213.206 -166.48 210.392 -163.938 207.312 C-161 204 -161 204 -157 202 C-156.732 201.257 -156.464 200.515 -156.188 199.75 C-154.772 196.471 -152.728 195.007 -150.004 192.789 C-144.077 187.497 -139.899 181.407 -136.984 174.07 C-135.664 171.292 -133.652 169.261 -131.586 167.012 C-126.857 161.013 -123.696 153.402 -122 146 C-120 138 -120 138 -118.188 136.375 C-115.345 133.289 -114.318 130.063 -112.93 126.145 C-112 124 -112 124 -110 123 C-109.567 121.969 -109.134 120.938 -108.688 119.875 C-105.677 112.961 -102.239 109.051 -96 105 C-93.799 103.351 -91.612 101.684 -89.438 100 C-88.343 99.154 -87.249 98.309 -86.121 97.438 C-81.475 93.809 -77.121 90.224 -73 86 C-72.113 85.196 -71.226 84.391 -70.312 83.562 C-68 81 -68 81 -67.125 78.188 C-65.725 74.22 -63.491 72.003 -60.664 68.949 C-59 67 -59 67 -57.438 63.812 C-56 61 -56 61 -53.062 58.562 C-48.289 54.568 -46.231 49.943 -44.375 44.125 C-43 40 -43 40 -41 39 C-40.318 37.339 -39.654 35.672 -39 34 C-38.058 32.538 -37.077 31.1 -36.062 29.688 C-34.036 26.744 -32.518 24.073 -31.375 20.688 C-30 17 -30 17 -28.004 15.109 C-25.619 12.599 -25.238 10.923 -24.562 7.562 C-21.261 -5.952 -10.949 -5.363 0 0 Z " fill="#B0682A" transform="translate(531,15)"/></g><g><path d="M0 0 C0.027 1.604 0.046 3.208 0.062 4.812 C0.074 5.706 0.086 6.599 0.098 7.52 C0 10 0 10 -1 13 C-1.66 13 -2.32 13 -3 13 C-5.541 21.574 -5.541 21.574 -2 26 C-2.99 26 -3.98 26 -5 26 C-5.33 26.66 -5.66 27.32 -6 28 C-7.32 28 -8.64 28 -10 28 C-10.66 29.32 -11.32 30.64 -12 32 C-12.557 32.866 -13.114 33.733 -13.688 34.625 C-15 37 -15 37 -14 39 C-14.25 42.562 -14.25 42.562 -15 46 C-15.99 46.33 -16.98 46.66 -18 47 C-17.34 48.65 -16.68 50.3 -16 52 C-17.646 52.717 -19.314 53.383 -21 54 C-21.33 53.67 -21.66 53.34 -22 53 C-21.691 54.031 -21.381 55.062 -21.062 56.125 C-20.972 61.744 -23.759 62.847 -28 66 C-31.092 69.189 -31.092 69.189 -30.688 72.75 C-30.461 73.493 -30.234 74.235 -30 75 C-31.32 75 -32.64 75 -34 75 C-33.969 75.371 -33.969 75.371 -33.812 77.25 C-34.034 80.493 -35.072 81.485 -37 84 C-36.67 84.99 -36.34 85.98 -36 87 C-36.33 87.66 -36.66 88.32 -37 89 C-36.01 89.33 -35.02 89.66 -34 90 C-33.261 92.983 -33.217 95.922 -33 99 C-33.66 99 -34.32 99 -35 99 C-35 98.34 -35 97.68 -35 97 C-36.32 96.67 -37.64 96.34 -39 96 C-38.67 95.34 -38.34 94.68 -38 94 C-37.34 94 -36.68 94 -36 94 C-36 93.01 -36 92.02 -36 91 C-37.32 91 -38.64 91 -40 91 C-40.66 92.32 -41.32 93.64 -42 95 C-42.66 95 -43.32 95 -44 95 C-44 92.03 -44 89.06 -44 86 C-44.66 86 -45.32 86 -46 86 C-45.907 86.371 -45.907 86.371 -45.438 88.25 C-45 91 -45 91 -46 95 C-46 95.33 -46 95.66 -46 96 C-45.34 96 -44.68 96 -44 96 C-44 96.66 -44 97.32 -44 98 C-43.34 98 -42.68 98 -42 98 C-42.33 99.65 -42.66 101.3 -43 103 C-43.33 102.67 -43.33 102.67 -45 101 C-44.67 100.34 -44.34 99.68 -44 99 C-44.825 99.165 -44.825 99.165 -49 100 C-47.828 113.086 -47.828 113.086 -43.375 115.312 C-42.591 115.539 -41.808 115.766 -41 116 C-41.66 116.165 -41.66 116.165 -45 117 C-45.66 118.32 -46.32 119.64 -47 121 C-47.66 121 -48.32 121 -49 121 C-48.67 119.68 -48.34 118.36 -48 117 C-48.825 116.546 -49.65 116.093 -50.5 115.625 C-53 114 -53 114 -53 112 C-52.34 112 -51.68 112 -51 112 C-51.25 109.562 -51.25 109.562 -52 107 C-53.32 106.67 -54.64 106.34 -56 106 C-55.67 105.34 -55.34 104.68 -55 104 C-54.505 104.33 -54.505 104.33 -52 106 C-51.67 104.68 -51.34 103.36 -51 102 C-51.66 102 -52.32 102 -53 102 C-53.125 94.25 -53.125 94.25 -52 92 C-52.949 92.351 -53.897 92.701 -54.875 93.062 C-58 94 -58 94 -60 93 C-60 93.66 -60 94.32 -60 95 C-60.33 95.33 -60.33 95.33 -62 97 C-62.165 97.33 -62.165 97.33 -63 99 C-63.33 98.01 -63.66 97.02 -64 96 C-71.265 97.14 -72.598 99.973 -76 106 C-76.66 106 -77.32 106 -78 106 C-75.709 96.835 -67.151 89.798 -60 84 C-57.999 82.335 -55.999 80.668 -54 79 C-48.267 74.216 -48.267 74.216 -45.77 72.191 C-25.722 55.505 -12.684 27.21 -3.023 3.422 C-1.577 0 -1.577 0 0 0 Z M-53 89 C-52.67 89.66 -52.34 90.32 -52 91 C-51.67 90.34 -51.34 89.68 -51 89 C-51.66 89 -52.32 89 -53 89 Z " fill="#F2DCA6" transform="translate(509,35)"/>
<path d="M0 0 C0.66 0 1.32 0 2 0 C2.914 1.785 2.914 1.785 3.84 4.277 C4.181 5.184 4.522 6.091 4.873 7.025 C5.224 7.986 5.576 8.947 5.938 9.938 C6.111 10.401 6.111 10.401 6.99 12.744 C8.856 17.751 10.61 22.782 12.278 27.857 C13.237 30.703 14.288 33.514 15.346 36.325 C26.969 67.231 38.738 100.47 37 134 C36.34 134 35.68 134 35 134 C35 134.66 35 135.32 35 136 C34.34 136 33.68 136 33 136 C33 135.34 33 134.68 33 134 C30.03 134.33 27.06 134.66 24 135 C24.66 135.66 25.32 136.32 26 137 C25.67 138.32 25.34 139.64 25 141 C24.01 141 23.02 141 22 141 C22.99 141.33 23.98 141.66 25 142 C25.688 144.562 25.688 144.562 26 147 C25.01 147 24.02 147 23 147 C23 147.66 23 148.32 23 149 C22.34 149.33 21.68 149.66 21 150 C21.33 150.99 21.66 151.98 22 153 C21.34 154.32 20.68 155.64 20 157 C15.661 153.359 13.659 148.786 11.188 143.812 C6.225 134.06 0.742 124.69 -4.96 115.353 C-5.571 114.351 -6.183 113.349 -6.812 112.316 C-7.355 111.434 -7.898 110.552 -8.457 109.643 C-9.595 107.694 -10.642 105.693 -11.637 103.668 C-11.862 103.228 -11.862 103.228 -13 101 C-13.33 101 -13.66 101 -14 101 C-14.084 101.715 -14.084 101.715 -14.509 105.336 C-16.342 120.63 -18.652 135.809 -21.188 151 C-21.56 153.251 -21.931 155.503 -22.303 157.754 C-23.197 163.17 -24.097 168.585 -25 174 C-36.011 168.495 -44.568 154.807 -51.164 144.676 C-53 142 -53 142 -55 141 C-55.063 141.643 -55.063 141.643 -55.385 144.898 C-55.939 149.872 -56.843 154.729 -57.848 159.629 C-58.024 160.504 -58.2 161.379 -58.381 162.281 C-58.938 165.042 -59.5 167.802 -60.062 170.562 C-60.444 172.448 -60.825 174.335 -61.205 176.221 C-62.133 180.815 -63.065 185.408 -64 190 C-68.693 187.654 -70.113 184.954 -72.562 180.562 C-74.782 176.647 -76.781 173.219 -80 170 C-80.574 170.427 -81.147 170.853 -81.738 171.293 C-107.655 190.367 -134.817 208.45 -162.638 224.625 C-167.147 227.249 -171.634 229.91 -176.125 232.562 C-177.041 233.102 -177.958 233.642 -178.902 234.198 C-185.658 238.182 -192.362 242.246 -199.016 246.399 C-202.341 248.456 -205.668 250.379 -209.176 252.109 C-212.342 253.675 -215.316 255.328 -218.312 257.188 C-220.934 258.813 -223.062 260.021 -226 261 C-226.33 261.278 -226.33 261.278 -228 262.688 C-231.33 265.254 -234.739 267.125 -238.445 269.094 C-241.229 270.587 -243.989 272.108 -246.742 273.656 C-271.604 287.599 -271.604 287.599 -278 286 C-276.378 284.995 -274.753 283.996 -273.125 283 C-272.673 282.722 -272.673 282.722 -270.383 281.312 C-268 280 -268 280 -266 280 C-266 279.34 -266 278.68 -266 278 C-263.945 276.52 -263.945 276.52 -261.125 274.812 C-257.435 272.568 -253.859 270.221 -250.332 267.73 C-244.828 263.851 -239.211 260.165 -233.562 256.5 C-232.603 255.875 -231.643 255.25 -230.654 254.605 C-224.962 250.902 -219.245 247.239 -213.512 243.599 C-210.12 241.44 -206.747 239.253 -203.375 237.062 C-198.235 233.726 -193.081 230.41 -187.91 227.121 C-175.237 219.056 -162.641 210.932 -150.441 202.16 C-144.506 197.906 -138.342 194.114 -132.1 190.335 C-119.845 182.901 -107.901 174.985 -96 167 C-98.97 167.33 -98.97 167.33 -114 169 C-114 165.39 -109.664 164.092 -106.812 162.375 C-106.085 161.929 -105.358 161.483 -104.608 161.024 C-103.117 160.111 -101.624 159.2 -100.129 158.293 C-96.126 155.862 -92.143 153.398 -88.18 150.902 C-85 149 -85 149 -81.445 147.254 C-72.429 142.585 -70.161 138.607 -68.501 128.751 C-67.622 123.926 -66.493 119.157 -65.39 114.379 C-64.76 111.647 -64.145 108.911 -63.547 106.171 C-63.262 104.903 -62.977 103.635 -62.684 102.328 C-62.432 101.182 -62.179 100.037 -61.92 98.856 C-61 96 -61 96 -58 93 C-54.235 99.01 -50.801 105.164 -47.5 111.438 C-47.115 112.168 -46.73 112.899 -46.334 113.652 C-45.222 115.768 -44.111 117.884 -43 120 C-41.861 122.17 -40.716 124.337 -39.562 126.5 C-39.11 127.356 -38.658 128.212 -38.191 129.094 C-37 131 -37 131 -35 132 C-34.951 131.027 -34.902 130.054 -34.851 129.052 C-34.313 119.389 -33.335 109.896 -32.004 100.309 C-31.81 98.88 -31.617 97.451 -31.417 95.979 C-30.908 92.224 -30.393 88.47 -29.876 84.717 C-29.355 80.93 -28.841 77.142 -28.326 73.354 C-27.567 67.768 -26.804 62.184 -26.037 56.599 C-25.006 49.069 -23.999 41.535 -23 34 C-18.828 35.391 -18.858 37.102 -17.293 41.133 C-16.788 42.415 -16.284 43.698 -15.764 45.02 C-15.504 45.697 -15.504 45.697 -14.188 49.125 C-13.933 49.775 -13.933 49.775 -12.646 53.066 C-11.617 55.7 -10.592 58.336 -9.572 60.974 C-8.489 63.747 -7.395 66.511 -6.276 69.269 C-5.727 70.621 -5.179 71.974 -4.613 73.367 C-4.112 74.593 -3.611 75.819 -3.095 77.082 C-2 80 -2 80 -2 82 C-1.34 82 -0.68 82 0 82 C-0.33 81.34 -0.66 80.68 -1 80 C-1.1 76.887 -1.14 73.797 -1.133 70.684 C-1.134 69.731 -1.135 68.779 -1.137 67.798 C-1.139 64.678 -1.132 61.558 -1.125 58.438 C-1.124 57.383 -1.123 56.328 -1.122 55.242 C-1.104 36.812 -0.74 18.416 0 0 Z M27 115 C27.66 115.66 28.32 116.32 29 117 C29 116.34 29 115.68 29 115 C28.34 115 27.68 115 27 115 Z M24 125 C24 125.66 24 126.32 24 127 C24.66 127 25.32 127 26 127 C26 126.34 26 125.68 26 125 C25.34 125 24.68 125 24 125 Z M-232 259 C-232.33 259.99 -232.66 260.98 -233 262 C-232.34 262 -231.68 262 -231 262 C-231.33 261.01 -231.66 260.02 -232 259 Z " fill="#F2DCA6" transform="translate(544,247)"/>
<path d="M0 0 C1 4 1 4 -2 7 C-3.028 9.656 -4.027 12.323 -5 15 C-7.118 19.571 -10.343 22.054 -14.133 25.219 C-16.519 27.495 -17.685 30.005 -19 33 C-19.66 33 -20.32 33 -21 33 C-21.33 33.99 -21.66 34.98 -22 36 C-22.33 36.165 -22.33 36.165 -24 37 C-24 37.99 -24 38.98 -24 40 C-25.629 41.379 -27.297 42.713 -29 44 C-29.33 44.66 -29.66 45.32 -30 46 C-30.99 46.33 -31.98 46.66 -33 47 C-33.33 47.99 -33.66 48.98 -34 50 C-34.66 50 -35.32 50 -36 50 C-36.33 50.66 -36.66 51.32 -37 52 C-37.825 52.165 -38.65 52.33 -39.5 52.5 C-43.679 55.007 -42.908 59.447 -43 64 C-45.64 64.33 -48.28 64.66 -51 65 C-50.34 66.65 -49.68 68.3 -49 70 C-49.99 70.66 -50.98 71.32 -52 72 C-52 71.01 -52 70.02 -52 69 C-52.66 69 -53.32 69 -54 69 C-53.773 70.114 -53.546 71.228 -53.312 72.375 C-53.261 72.973 -53.261 72.973 -53 76 C-56.475 78.316 -57.176 78.208 -61 77 C-61.33 76.34 -61.66 75.68 -62 75 C-62.99 75.66 -63.98 76.32 -65 77 C-65.66 76.67 -66.32 76.34 -67 76 C-67.052 76.392 -67.052 76.392 -67.312 78.375 C-68 81 -68 81 -71 83 C-71.99 83 -72.98 83 -74 83 C-74 83.66 -74 84.32 -74 85 C-74.99 85 -75.98 85 -77 85 C-77.702 86.652 -78.37 88.319 -79 90 C-79.66 90 -80.32 90 -81 90 C-81.33 90.66 -81.33 90.66 -83 94 C-83.99 94.99 -84.98 95.98 -86 97 C-87.188 99.687 -87.188 99.687 -88 102 C-88.66 101.34 -89.32 100.68 -90 100 C-91.32 100 -92.64 100 -94 100 C-94 100.66 -94 101.32 -94 102 C-94.495 102.165 -94.495 102.165 -97 103 C-97.66 103.99 -98.32 104.98 -99 106 C-99.66 105.835 -99.66 105.835 -103 105 C-104.393 106.617 -105.719 108.293 -107 110 C-109.438 111.625 -109.438 111.625 -112 113 C-116.889 115.778 -116.889 115.778 -118 118 C-118.66 118 -119.32 118 -120 118 C-120 118.99 -120 119.98 -120 121 C-120.485 121.072 -120.485 121.072 -122.938 121.438 C-127.058 122.194 -126.61 122.415 -129 126 C-130.32 126.33 -131.64 126.66 -133 127 C-133.454 127.639 -133.908 128.279 -134.375 128.938 C-136.542 131.687 -138.694 132.066 -142 133 C-143 134 -143 134 -143.875 138.125 C-144.788 142.351 -145.956 146.157 -148 150 C-148.99 150 -149.98 150 -151 150 C-150.01 148.68 -149.02 147.36 -148 146 C-148.66 146 -149.32 146 -150 146 C-150 144.35 -150 142.7 -150 141 C-149.01 141 -148.02 141 -147 141 C-147.66 140.34 -148.32 139.68 -149 139 C-152 142 -152 142 -152 144.5 C-152 147 -152 147 -155 150 C-155.33 151.32 -155.66 152.64 -156 154 C-156.33 153.34 -156.66 152.68 -157 152 C-161 154 -161 154 -163 157 C-164.32 157.33 -165.64 157.66 -167 158 C-167.66 159.32 -168.32 160.64 -169 162 C-168.34 162 -167.68 162 -167 162 C-167.165 163.011 -167.33 164.021 -167.5 165.062 C-167.97 168.763 -168.076 172.276 -168 176 C-166.68 176.33 -165.36 176.66 -164 177 C-164 177.66 -164 178.32 -164 179 C-164.969 178.938 -165.939 178.876 -166.938 178.812 C-167.948 178.874 -168.959 178.936 -170 179 C-170.33 179.99 -170.66 180.98 -171 182 C-171.66 182 -172.32 182 -173 182 C-173 182.99 -173 183.98 -173 185 C-171.68 185.33 -170.36 185.66 -169 186 C-169 186.66 -169 187.32 -169 188 C-169.66 188.33 -170.32 188.66 -171 189 C-171.66 190.32 -172.32 191.64 -173 193 C-174.32 193 -175.64 193 -177 193 C-177 194.32 -177 195.64 -177 197 C-177.99 197 -178.98 197 -180 197 C-180.66 198.32 -181.32 199.64 -182 201 C-183.32 201 -184.64 201 -186 201 C-185.835 200.216 -185.67 199.433 -185.5 198.625 C-184.724 194.552 -184.724 194.552 -186 192 C-185.01 192 -184.02 192 -183 192 C-183 191.34 -183 190.68 -183 190 C-189.875 191.75 -189.875 191.75 -191 194 C-193 194 -193 194 -194.312 191.875 C-195.239 188.001 -194.009 186.323 -192 183 C-192.464 183.186 -192.464 183.186 -194.812 184.125 C-198 185 -198 185 -201 183 C-201.412 183.928 -201.825 184.856 -202.25 185.812 C-204.012 189.021 -205.18 189.885 -208 192 C-208.474 192.99 -208.949 193.98 -209.438 195 C-211.206 198.395 -212.57 199.417 -216 201 C-216.66 201 -217.32 201 -218 201 C-209.983 184.966 -195.104 171.95 -181.65 160.446 C-180.248 159.217 -178.926 157.898 -177.625 156.562 C-176 155 -176 155 -174 155 C-174 154.34 -174 153.68 -174 153 C-172.199 151.371 -172.199 151.371 -169.688 149.438 C-166.117 146.657 -162.596 143.842 -159.125 140.938 C-147.52 131.426 -135.386 122.545 -122.992 114.094 C-118.704 111.093 -114.586 107.887 -110.457 104.672 C-106.63 101.714 -102.755 98.825 -98.875 95.938 C-93.389 91.844 -88.027 87.642 -82.762 83.266 C-79.613 80.682 -76.404 78.186 -73.188 75.688 C-64.271 68.735 -55.741 61.347 -47.312 53.812 C-44 51 -44 51 -41 50 C-41 49.34 -41 48.68 -41 48 C-39.496 46.555 -39.496 46.555 -37.438 44.875 C-33.165 41.23 -29.601 37.297 -26 33 C-25.13 31.983 -24.26 30.966 -23.363 29.918 C-18.514 24.235 -13.762 18.535 -9.34 12.512 C-8 11 -8 11 -6 11 C-5.711 10.113 -5.423 9.226 -5.125 8.312 C-3.939 4.821 -2.42 2.743 0 0 Z M-108 107 C-107 109 -107 109 -107 109 Z M-181 187 C-181.312 190.188 -181.312 190.188 -181 193 C-180.67 193.165 -180.67 193.165 -179 194 C-176.812 190.718 -176.811 189.775 -177 186 C-177 185.01 -177 184.02 -177 183 C-179.171 183 -180.014 185.371 -181 187 Z " fill="#F2DCA6" transform="translate(400,345)"/>
<path d="M0 0 C-4.371 3.446 -8.724 6.494 -13.562 9.25 C-30.996 19.256 -47.317 31.277 -62 45 C-62.924 45.822 -63.849 46.645 -64.801 47.492 C-70.286 52.376 -75.346 57.322 -80 63 C-80.623 63.723 -81.245 64.446 -81.887 65.191 C-102.713 90.028 -109.823 120.348 -99.863 151.562 C-93.57 168.715 -93.57 168.715 -89 171 C-89.144 170.392 -89.289 169.783 -89.438 169.156 C-97.743 129.937 -82.576 90.639 -59 60 C-58.223 58.925 -57.445 57.85 -56.645 56.742 C-46.897 43.451 -34.959 32.122 -22 22 C-19.1 19.589 -16.205 17.171 -13.312 14.75 C-11 13 -11 13 -8 12 C-9.791 15.582 -10.491 16.683 -13.375 19.062 C-19.064 23.883 -24.542 28.92 -30 34 C-30.724 34.669 -31.449 35.338 -32.195 36.027 C-48.247 51.397 -59.163 71.325 -69 91 C-69.99 90.34 -70.98 89.68 -72 89 C-72.66 90.32 -73.32 91.64 -74 93 C-74.33 93.165 -74.33 93.165 -76 94 C-76.125 96.375 -76.125 96.375 -76 99 C-76 99.99 -76 100.98 -76 102 C-74.68 99.69 -73.36 97.38 -72 95 C-70.219 98.561 -72.559 102.599 -73.688 106.25 C-82.126 135.239 -85.948 168.584 -77 198 C-76.588 199.356 -76.175 200.712 -75.75 202.109 C-70.886 216.316 -63.629 229.807 -53.617 241.031 C-52 243 -52 243 -52 245 C-51.34 245 -50.68 245 -50 245 C-48.414 246.574 -48.414 246.574 -46.625 248.688 C-46.316 249.05 -46.316 249.05 -44.754 250.887 C-42.805 253.234 -40.878 255.596 -39 258 C-46.943 256.014 -53.458 250.903 -58.965 244.977 C-63.55 240.524 -68.888 236.821 -74 233 C-73.567 233.771 -73.134 234.542 -72.688 235.336 C-72.131 236.339 -71.574 237.342 -71 238.375 C-70.722 238.874 -70.722 238.874 -69.312 241.398 C-68 244 -68 244 -68 246 C-90.897 238.58 -108.333 208.222 -115.176 187.012 C-116 185 -116 185 -118 184 C-117.653 200.614 -117.293 216.827 -112.25 232.812 C-111 237 -111 237 -112 241 C-138.738 208.392 -135.433 157.603 -122.12 119.947 C-114.876 100.89 -104.548 84.002 -92 68 C-91.505 67.368 -91.009 66.735 -90.499 66.084 C-81.495 54.649 -72.193 44.318 -60.77 35.211 C-58.955 33.762 -57.159 32.289 -55.387 30.789 C-45.62 22.541 -13.488 -4.496 0 0 Z M-80 107 C-80 107.66 -80 108.32 -80 109 C-79.34 109 -78.68 109 -78 109 C-78 108.34 -78 107.68 -78 107 C-78.66 107 -79.32 107 -80 107 Z M-117 139 C-117 139.66 -117 140.32 -117 141 C-117.99 140.67 -118.98 140.34 -120 140 C-120 140.66 -120 141.32 -120 142 C-121.32 142.33 -122.64 142.66 -124 143 C-124.75 145.562 -124.75 145.562 -125 148 C-123.68 148.33 -122.36 148.66 -121 149 C-121 147.68 -121 146.36 -121 145 C-119.339 144.319 -117.672 143.653 -116 143 C-115.67 141.68 -115.34 140.36 -115 139 C-115.66 139 -116.32 139 -117 139 Z M-111 149 C-111.33 149.66 -111.66 150.32 -112 151 C-111.01 151 -110.02 151 -109 151 C-109 150.34 -109 149.68 -109 149 C-109.66 149 -110.32 149 -111 149 Z M-124 151 C-125.235 155.828 -124.962 157.971 -122 162 C-122.66 162 -123.32 162 -124 162 C-124 162.99 -124 163.98 -124 165 C-123.01 165 -122.02 165 -121 165 C-120.938 164.474 -120.938 164.474 -120.625 161.812 C-120 158 -120 158 -118.812 155.188 C-118.678 154.827 -118.678 154.827 -118 153 C-120 151 -120 151 -124 151 Z M-115 151 C-115 151.66 -115 152.32 -115 153 C-114.01 152.67 -113.02 152.34 -112 152 C-112.99 151.67 -113.98 151.34 -115 151 Z M-114 155 C-115 157 -115 157 -114 159 C-111.438 159.625 -111.438 159.625 -109 160 C-109 159.01 -109 158.02 -109 157 C-111.5 155.812 -111.5 155.812 -114 155 Z M-114 162 C-114.33 162.66 -114.66 163.32 -115 164 C-114.01 164 -113.02 164 -112 164 C-112 163.34 -112 162.68 -112 162 C-112.66 162 -113.32 162 -114 162 Z M-127 174 C-126.67 175.65 -126.34 177.3 -126 179 C-125.34 178.67 -124.68 178.34 -124 178 C-124.33 176.68 -124.66 175.36 -125 174 C-125.66 174 -126.32 174 -127 174 Z M-114 181 C-113.67 181.99 -113.34 182.98 -113 184 C-112.67 183.01 -112.34 182.02 -112 181 C-112.66 181 -113.32 181 -114 181 Z M-84 226 C-83 228 -83 228 -83 228 Z " fill="#F2DCA6" transform="translate(162,446)"/>
<path d="M0 0 C0.66 0.33 1.32 0.66 2 1 C1.67 1.66 1.34 2.32 1 3 C1.66 3 2.32 3 3 3 C3.33 4.65 3.66 6.3 4 8 C3.175 7.67 3.175 7.67 -1 6 C-0.01 9.63 0.98 13.26 2 17 C4.938 16.75 4.938 16.75 8 16 C8.33 14.68 8.66 13.36 9 12 C10.32 12.66 11.64 13.32 13 14 C13 14.66 13 15.32 13 16 C13.99 16.33 14.98 16.66 16 17 C15.67 17.99 15.34 18.98 15 20 C15.66 20.33 16.32 20.66 17 21 C17 20.34 17 19.68 17 19 C20.343 19.297 22.431 19.534 25.062 21.688 C26.488 25.205 24.816 26.822 23 30 C22.835 30.928 22.67 31.856 22.5 32.812 C22 35 22 35 19 36 C18.835 35.835 18.835 35.835 18 35 C17.67 35.99 17.34 36.98 17 38 C17.495 38.165 17.495 38.165 20 39 C19.67 40.32 19.34 41.64 19 43 C17.68 43 16.36 43 15 43 C14.67 43.99 14.34 44.98 14 46 C14.99 46 15.98 46 17 46 C16.67 46.99 16.34 47.98 16 49 C12.938 49.188 12.938 49.188 10 49 C10.186 49.887 10.371 50.774 10.562 51.688 C10.92 55.216 10.9 57.9 10.562 61.375 C9.952 68.172 9.882 74.931 9.875 81.75 C9.871 82.815 9.866 83.88 9.862 84.978 C9.872 91.051 9.928 97.012 11 103 C11.495 103.165 11.495 103.165 14 104 C13.01 105.32 12.02 106.64 11 108 C11.66 108 12.32 108 13 108 C14.125 110.5 14.125 110.5 15 113 C14.67 113.165 14.67 113.165 13 114 C12.67 114.99 12.34 115.98 12 117 C13.65 117.66 15.3 118.32 17 119 C16.67 119.66 16.34 120.32 16 121 C14.667 121 13.333 121 12 121 C12 121.66 12 122.32 12 123 C13.98 123 15.96 123 18 123 C16 126 16 126 12 126 C12.144 126.967 12.289 127.934 12.438 128.93 C14.139 140.866 14.139 140.866 14 146.125 C13.888 150.986 14.622 155.557 15.426 160.344 C16.313 165.991 16.909 171.666 17.535 177.348 C18 181 18 181 19 185 C19 185.66 19 186.32 19 187 C19.99 186.67 20.98 186.34 22 186 C22.33 186.99 22.66 187.98 23 189 C23.66 189 24.32 189 25 189 C27 192 27 192 26.875 194.562 C26.916 195.367 26.957 196.171 27 197 C28.32 197.66 29.64 198.32 31 199 C35.58 201.29 35.915 208.429 37 213 C36.01 213 35.02 213 34 213 C33.67 213.66 33.34 214.32 33 215 C33.99 215.33 34.98 215.66 36 216 C36.451 223.099 36.451 223.099 35 226 C35.66 226 36.32 226 37 226 C37 225.01 37 224.02 37 223 C38.32 223 39.64 223 41 223 C40.67 223.99 40.34 224.98 40 226 C39.34 226 38.68 226 38 226 C37.67 227.65 37.34 229.3 37 231 C37.99 231 38.98 231 40 231 C39.221 245.781 39.221 245.781 37 252 C38.65 252 40.3 252 42 252 C42.33 250.35 42.66 248.7 43 247 C43.99 247.33 44.98 247.66 46 248 C46.99 248 47.98 248 49 248 C48.67 248.66 48.34 249.32 48 250 C48.99 250.33 49.98 250.66 51 251 C50.67 251.66 50.34 252.32 50 253 C48.68 253 47.36 253 46 253 C46 253.66 46 254.32 46 255 C46.99 255 47.98 255 49 255 C48.67 256.98 48.34 258.96 48 261 C48.99 261.33 49.98 261.66 51 262 C51.429 265.027 51.13 267.934 51 271 C51.639 270.897 51.639 270.897 54.875 270.375 C59 270 59 270 61 272 C64.586 272.142 68.129 271.994 71.715 271.875 C75 272 75 272 78 274 C68.109 274.775 58.231 275.379 48.312 275.625 C46.97 275.696 45.627 275.767 44.244 275.84 C40.635 275.909 37.505 275.866 34 275 C31.894 271.502 31.564 269.907 31 266 C30.348 263.546 29.674 261.097 28.984 258.652 C13.965 200.877 7.839 140.974 2.682 81.61 C1.282 65.532 -0.468 49.516 -2.478 33.502 C-3.493 25.295 -4.262 17.288 -4 9 C-5.65 9.33 -7.3 9.66 -9 10 C-8 7 -8 7 -6 6 C-6 5.01 -6 4.02 -6 3 C-5.196 3.062 -4.391 3.124 -3.562 3.188 C-3.14 3.157 -3.14 3.157 -1 3 C-0.67 2.01 -0.34 1.02 0 0 Z M3 21 C3 21.66 3 22.32 3 23 C6.393 22.46 9.662 21.834 13 21 C12.67 20.01 12.34 19.02 12 18 C8.009 17.353 5.882 18.224 3 21 Z M7 27 C7 27.66 7 28.32 7 29 C5.35 28.67 3.7 28.34 2 28 C2.33 29.98 2.66 31.96 3 34 C3.66 34 4.32 34 5 34 C5 33.34 5 32.68 5 32 C6.32 32 7.64 32 9 32 C8.67 30.35 8.34 28.7 8 27 C7.67 27 7.34 27 7 27 Z M30 204 C27 208.625 27 208.625 27 212 C29.31 210.02 31.62 208.04 34 206 C32.68 205.34 31.36 204.68 30 204 Z M35 234 C35 234.99 35 235.98 35 237 C35.66 236.01 36.32 235.02 37 234 C36.34 234 35.68 234 35 234 Z M42 253 C41.67 253.99 41.34 254.98 41 256 C41.66 256 42.32 256 43 256 C42.67 255.01 42.34 254.02 42 253 Z " fill="#F2DCA6" transform="translate(452,504)"/>
<path d="M0 0 C0.33 0.495 0.33 0.495 2 3 C1.528 2.964 1.528 2.964 -0.859 2.781 C-30.585 0.632 -56.837 6.509 -83 21 C-84.174 21.625 -85.349 22.25 -86.559 22.895 C-108.06 34.664 -127.628 51.434 -144.812 68.812 C-147.212 71.23 -149.632 73.616 -152.125 75.938 C-152.746 76.524 -153.368 77.111 -154.008 77.715 C-156.489 79.316 -158.103 79.246 -161 79 C-160.917 79.908 -160.835 80.815 -160.75 81.75 C-161.051 85.659 -161.759 86.839 -165 89 C-166.32 88.34 -167.64 87.68 -169 87 C-168.67 85.35 -168.34 83.7 -168 82 C-168.99 82.33 -169.98 82.66 -171 83 C-171 82.01 -171 81.02 -171 80 C-171.99 80 -172.98 80 -174 80 C-174 80.99 -174 81.98 -174 83 C-174.33 83.165 -174.33 83.165 -176 84 C-176.165 84.66 -176.165 84.66 -177 88 C-180.562 89.25 -180.562 89.25 -184 90 C-183.031 89.959 -182.061 89.918 -181.062 89.875 C-180.052 89.916 -179.041 89.957 -178 90 C-177.67 90.66 -177.34 91.32 -177 92 C-183.75 96 -183.75 96 -186 96 C-186.309 95.175 -186.619 94.35 -186.938 93.5 C-187.288 92.675 -187.639 91.85 -188 91 C-188.99 91 -189.98 91 -191 91 C-189 87 -189 87 -187 86 C-188.65 85.01 -190.3 84.02 -192 83 C-194.336 86.503 -194.043 87.141 -193 91 C-193.66 91 -194.32 91 -195 91 C-195.069 93.949 -195.087 96.613 -194.438 99.5 C-193.904 102.548 -194.37 104.991 -195 108 C-196.65 107.67 -198.3 107.34 -200 107 C-200 106.34 -200 105.68 -200 105 C-200.495 104.835 -200.495 104.835 -203 104 C-203 102 -203 102 -200 100 C-199.835 99.505 -199.835 99.505 -199 97 C-199.784 97.103 -200.567 97.206 -201.375 97.312 C-204 97 -204 97 -205.312 94.5 C-205.426 94.087 -205.426 94.087 -206 92 C-206.227 92.701 -206.454 93.403 -206.688 94.125 C-208.68 98.489 -210.769 102.702 -215.812 103.375 C-216.173 103.313 -216.173 103.313 -218 103 C-217.959 103.743 -217.917 104.485 -217.875 105.25 C-218 108 -218 108 -220 112 C-220.66 112 -221.32 112 -222 112 C-220.326 98.323 -217.94 85.209 -214 72 C-213.631 70.752 -213.263 69.504 -212.883 68.219 C-208.357 53.86 -202.544 39.473 -194.625 26.641 C-192.91 23.854 -191.355 21.01 -189.812 18.125 C-187.731 14.268 -185.523 10.591 -183 7 C-181.684 12.265 -183.297 13.444 -186 18 C-190.093 28.847 -188.218 44.564 -183 55 C-178.579 53.895 -177.169 52.287 -174.102 49.082 C-170.917 45.927 -167.43 43.183 -163.938 40.379 C-161.015 38.012 -158.167 35.572 -155.312 33.125 C-144.085 23.771 -131.871 15.899 -119 9 C-117.805 8.355 -116.61 7.711 -115.379 7.047 C-79.104 -11.815 -37.417 -21.693 0 0 Z M-56 4 C-56.33 4.66 -56.66 5.32 -57 6 C-56.34 6 -55.68 6 -55 6 C-55.33 5.34 -55.66 4.68 -56 4 Z M-100 9 C-99.67 9.99 -99.34 10.98 -99 12 C-97.68 11.34 -96.36 10.68 -95 10 C-95.33 9.34 -95.66 8.68 -96 8 C-98 8 -98 8 -100 9 Z M-92 8 C-91.67 8.99 -91.34 9.98 -91 11 C-91 10.01 -91 9.02 -91 8 C-91.33 8 -91.66 8 -92 8 Z M-104 9 C-106.5 9.688 -106.5 9.688 -109 11 C-109.312 13.625 -109.312 13.625 -109 16 C-107.68 15.67 -106.36 15.34 -105 15 C-105 13.68 -105 12.36 -105 11 C-104.34 11 -103.68 11 -103 11 C-103.33 10.34 -103.66 9.68 -104 9 Z M-108 18 C-107.67 18.66 -107.34 19.32 -107 20 C-106.67 19.34 -106.34 18.68 -106 18 C-106.66 18 -107.32 18 -108 18 Z M-107 21 C-106.67 22.32 -106.34 23.64 -106 25 C-106 24.34 -106 23.68 -106 23 C-105.34 22.67 -104.68 22.34 -104 22 C-104.99 21.67 -105.98 21.34 -107 21 Z M-159 70 C-158.67 70.99 -158.34 71.98 -158 73 C-157.34 72.34 -156.68 71.68 -156 71 C-156.99 70.67 -157.98 70.34 -159 70 Z M-194 79 C-193 82 -193 82 -193 82 Z " fill="#F2DCA6" transform="translate(353,555)"/>
<path d="M0 0 C0.905 0.278 1.81 0.557 2.742 0.844 C18.295 6.327 32.252 21.335 37 37 C32.842 39.079 28.453 39.131 24 38 C21.497 35.555 19.823 32.98 17.953 30.027 C10.626 18.67 0.516 13.835 -12 10 C-11.361 10.619 -10.721 11.237 -10.062 11.875 C7 29.286 7 29.286 7 38 C1.771 38.05 -3.457 38.086 -8.686 38.11 C-10.461 38.12 -12.236 38.133 -14.01 38.151 C-23.219 38.239 -32.016 38.314 -41 36 C-42.044 35.791 -43.088 35.582 -44.164 35.367 C-46.443 34.911 -48.721 34.456 -51 34 C-51 33.34 -51 32.68 -51 32 C-52.32 31.67 -53.64 31.34 -55 31 C-54.34 31.619 -53.68 32.237 -53 32.875 C-51 35 -51 35 -51 37 C-53.438 37.125 -53.438 37.125 -56 37 C-56.33 36.34 -56.66 35.68 -57 35 C-59.066 34.805 -59.066 34.805 -61.562 34.875 C-63.027 34.916 -64.491 34.957 -66 35 C-65.67 34.835 -65.67 34.835 -64 34 C-63.67 33.01 -63.34 32.02 -63 31 C-62.196 31.021 -61.391 31.041 -60.562 31.062 C-59.717 31.042 -58.871 31.021 -58 31 C-57.34 29.68 -56.68 28.36 -56 27 C-52.742 26.172 -52.742 26.172 -48.875 25.75 C-47.594 25.6 -46.312 25.451 -44.992 25.297 C-44.005 25.199 -43.017 25.101 -42 25 C-42 24.34 -42 23.68 -42 23 C-40.68 22.67 -39.36 22.34 -38 22 C-35.665 21.338 -33.332 20.673 -31 20 C-30.835 20.33 -30.835 20.33 -30 22 C-25.405 23.357 -22.586 23.369 -19 20 C-18.75 17 -18.75 17 -20 14 C-23.562 12.125 -23.562 12.125 -27 11 C-26.34 9.68 -25.68 8.36 -25 7 C-27.602 5.699 -30.137 5.467 -33 5 C-33.99 4.67 -34.98 4.34 -36 4 C-36 4.66 -36 5.32 -36 6 C-36.66 6 -37.32 6 -38 6 C-38 5.34 -38 4.68 -38 4 C-38.371 4.196 -38.371 4.196 -40.25 5.188 C-43.911 6.269 -44.1 5.218 -47 3 C-50.75 2.812 -50.75 2.812 -54 3 C-54 2.01 -54 1.02 -54 0 C-56.31 0.33 -58.62 0.66 -61 1 C-61 0.01 -61 -0.98 -61 -2 C-14.508 -4.585 -14.508 -4.585 0 0 Z " fill="#F2DCA6" transform="translate(376,741)"/></g></svg>